<svg version="1.1" xmlns="http://www.w3.org/2000/svg" xmlns:xlink="http://www.w3.org/1999/xlink" width="24" height="24" viewBox="0,0,256,256"><g fill-opacity="0.01961" fill="#172937" fill-rule="nonzero" stroke="none" stroke-width="1" stroke-linecap="butt" stroke-linejoin="miter" stroke-miterlimit="10" stroke-dasharray="" stroke-dashoffset="0" font-family="none" font-weight="none" font-size="none" text-anchor="none" style="mix-blend-mode: normal"><g transform="translate(1.856,0) scale(10.66667,10.66667)"><path d="M19.633,7.997c0.013,0.175 0.013,0.349 0.013,0.523c0,5.325 -4.053,11.461 -11.46,11.461c-2.282,0 -4.402,-0.661 -6.186,-1.809c0.324,0.037 0.636,0.05 0.973,0.05c1.81299,0.00438 3.57465,-0.60186 5.001,-1.721c-1.72322,-0.03119 -3.23648,-1.15318 -3.767,-2.793c0.249,0.037 0.499,0.062 0.761,0.062c0.361,0 0.724,-0.05 1.061,-0.137c-1.88099,-0.37978 -3.2327,-2.03406 -3.23,-3.953v-0.05c0.537,0.299 1.16,0.486 1.82,0.511c-1.12303,-0.74627 -1.7974,-2.00563 -1.796,-3.354c0,-0.748 0.199,-1.434 0.548,-2.032c2.04686,2.51782 5.06537,4.0496 8.306,4.215c-0.062,-0.3 -0.1,-0.611 -0.1,-0.923c-0.00053,-1.06845 0.42368,-2.0933 1.17919,-2.84881c0.75551,-0.75551 1.78036,-1.17972 2.84881,-1.17919c1.16,0 2.207,0.486 2.943,1.272c0.90177,-0.17438 1.76654,-0.50358 2.556,-0.973c-0.30059,0.93082 -0.93024,1.7201 -1.771,2.22c0.79979,-0.09122 1.58143,-0.30155 2.319,-0.624c-0.55087,0.8031 -1.23348,1.50734 -2.019,2.083z"></path></g></g></svg>